  0
SECTION
  2
HEADER
  9
$ACADVER
  1
AC1021
  9
$INSUNITS
 70
6
  0
ENDSEC
  0
SECTION
  2
TABLES
  0
TABLE
  2
VPORT
  5
8
330
0
100
AcDbSymbolTable
 70
1
  0
VPORT
  5
23
330
8
100
AcDbSymbolTableRecord
100
AcDbViewportTableRecord
  2
*Active
 70
0
 10
0.0
 20
0.0
 11
1.0
 21
1.0
 12
0.0
 22
0.0
 13
0.0
 23
0.0
 14
0.5
 24
0.5
 15
0.5
 25
0.5
 16
0.0
 26
0.0
 36
1.0
 17
0.0
 27
0.0
 37
0.0
 40
1000.0
 41
1.34
 42
50.0
 43
0.0
 44
0.0
 50
0.0
 51
0.0
 71
0
 72
1000
 73
1
 74
3
 75
0
 76
0
 77
0
 78
0
281
0
 65
0
146
0.0
  0
ENDTAB
  0
TABLE
  2
LTYPE
  5
2
330
0
100
AcDbSymbolTable
 70
3
  0
LTYPE
  5
24
330
2
100
AcDbSymbolTableRecord
100
AcDbLinetypeTableRecord
  2
ByBlock
 70
0
  3

 72
65
 73
0
 40
0.0
  0
LTYPE
  5
25
330
2
100
AcDbSymbolTableRecord
100
AcDbLinetypeTableRecord
  2
ByLayer
 70
0
  3

 72
65
 73
0
 40
0.0
  0
LTYPE
  5
26
330
2
100
AcDbSymbolTableRecord
100
AcDbLinetypeTableRecord
  2
Continuous
 70
0
  3

 72
65
 73
0
 40
0.0
  0
ENDTAB
  0
TABLE
  2
LAYER
  5
1
330
0
100
AcDbSymbolTable
 70
12
  0
LAYER
  5
27
330
1
100
AcDbSymbolTableRecord
100
AcDbLayerTableRecord
  2
0
 70
0
 62
7
  6
Continuous
370
-3
390
13
347
21
  0
LAYER
  5
28
330
1
100
AcDbSymbolTableRecord
100
AcDbLayerTableRecord
  2
Defpoints
 70
0
 62
7
  6
Continuous
290
0
370
-3
390
13
347
21
  0
LAYER
  5
29
330
1
100
AcDbSymbolTableRecord
100
AcDbLayerTableRecord
  2
Portant
 70
0
 62
1
  6
Continuous
370
-3
390
13
347
21
  0
LAYER
  5
2A
330
1
100
AcDbSymbolTableRecord
100
AcDbLayerTableRecord
  2
Despartitor
 70
0
 62
3
  6
Continuous
370
-3
390
13
347
21
  0
LAYER
  5
2B
330
1
100
AcDbSymbolTableRecord
100
AcDbLayerTableRecord
  2
Incaperi
 70
0
 62
150
  6
Continuous
370
-3
390
13
347
21
  0
LAYER
  5
2C
330
1
100
AcDbSymbolTableRecord
100
AcDbLayerTableRecord
  2
IncIzolate
 70
0
 62
4
  6
Continuous
370
-3
390
13
347
21
  0
LAYER
  5
2D
330
1
100
AcDbSymbolTableRecord
100
AcDbLayerTableRecord
  2
Nivel
 70
0
 62
202
  6
Continuous
370
-3
390
13
347
21
  0
LAYER
  5
2E
330
1
100
AcDbSymbolTableRecord
100
AcDbLayerTableRecord
  2
Gol
 70
0
 62
5
  6
Continuous
370
-3
390
13
347
21
  0
LAYER
  5
2F
330
1
100
AcDbSymbolTableRecord
100
AcDbLayerTableRecord
  2
Dimensiuni
 70
0
 62
150
  6
Continuous
370
-3
390
13
347
21
  0
LAYER
  5
30
330
1
100
AcDbSymbolTableRecord
100
AcDbLayerTableRecord
  2
Text
 70
0
 62
7
  6
Continuous
370
-3
390
13
347
21
  0
LAYER
  5
31
330
1
100
AcDbSymbolTableRecord
100
AcDbLayerTableRecord
  2
Alte
 70
0
 62
100
  6
Continuous
370
-3
390
13
347
21
  0
LAYER
  5
32
330
1
100
AcDbSymbolTableRecord
100
AcDbLayerTableRecord
  2
Grevari
 70
0
 62
2
  6
Continuous
370
-3
390
13
347
21
  0
ENDTAB
  0
TABLE
  2
STYLE
  5
5
330
0
100
AcDbSymbolTable
 70
1
  0
STYLE
  5
29
330
5
100
AcDbSymbolTableRecord
100
AcDbTextStyleTableRecord
  2
Standard
 70
0
 40
0.0
 41
1.0
 50
0.0
 71
0
 42
2.5
  3
txt
  4

  0
ENDTAB
  0
TABLE
  2
VIEW
  5
7
330
0
100
AcDbSymbolTable
 70
0
  0
ENDTAB
  0
TABLE
  2
UCS
  5
6
330
0
100
AcDbSymbolTable
 70
0
  0
ENDTAB
  0
TABLE
  2
APPID
  5
3
330
0
100
AcDbSymbolTable
 70
1
  0
APPID
  5
2A
330
3
100
AcDbSymbolTableRecord
100
AcDbRegAppTableRecord
  2
ACAD
 70
0
  0
ENDTAB
  0
TABLE
  2
DIMSTYLE
  5
4
330
0
100
AcDbSymbolTable
 70
2
100
AcDbDimStyleTable
  0
DIMSTYLE
105
2B
330
4
100
AcDbSymbolTableRecord
100
AcDbDimStyleTableRecord
  2
Standard
 70
0
 40
1.0
 41
180
 42
80.0
 43
3.75
 44
250.0
 45
0.0
 46
0.0
 47
0.0
 48
0.0
140
180
141
2.5
142
0.0
143
0.03937007874
144
0.001
145
0.0
146
1.0
147
80.0
148
0.0
 71
0
 72
0
 73
0
 74
0
 75
0
 76
0
 77
1
 78
8
 79
3
170
0
171
3
172
1
173
0
174
0
175
0
176
0
177
0
178
0
179
2
271
2
272
2
273
2
274
3
275
0
276
0
277
2
278
44
279
0
280
0
281
0
282
0
283
0
284
8
285
0
286
0
288
0
289
3
340
29
371
-2
372
-2
  0
ENDTAB
  0
TABLE
  2
BLOCK_RECORD
  5
9
330
0
100
AcDbSymbolTable
 70
2
  0
BLOCK_RECORD
  5
17
330
9
100
AcDbSymbolTableRecord
100
AcDbBlockTableRecord
  2
*Model_Space
340
1A
 70
0
280
1
281
0
  0
BLOCK_RECORD
  5
1B
330
9
100
AcDbSymbolTableRecord
100
AcDbBlockTableRecord
  2
*Paper_Space
340
1E
 70
0
280
1
281
0
  0
ENDTAB
  0
ENDSEC
  0
SECTION
  2
BLOCKS
  0
BLOCK
  5
18
330
17
100
AcDbEntity
  8
0
100
AcDbBlockBegin
  2
*Model_Space
 70
0
 10
0.0
 20
0.0
 30
0.0
  3
*Model_Space
  1

  0
ENDBLK
  5
19
330
17
100
AcDbEntity
  8
0
100
AcDbBlockEnd
  0
BLOCK
  5
1C
330
1B
100
AcDbEntity
  8
0
100
AcDbBlockBegin
  2
*Paper_Space
 70
0
 10
0.0
 20
0.0
 30
0.0
  3
*Paper_Space
  1

  0
ENDBLK
  5
1D
330
1B
100
AcDbEntity
  8
0
100
AcDbBlockEnd
  0
ENDSEC
  0
SECTION
  2
ENTITIES
  0
LINE
  5
41
330
17
100
AcDbEntity
  8
Portant
100
AcDbLine
 10
-200.000000
 20
0.000000
 30
0.0
 11
-200.000000
 21
3500.000000
 31
0.0
  0
LINE
  5
42
330
17
100
AcDbEntity
  8
Portant
100
AcDbLine
 10
200.000000
 20
0.000000
 30
0.0
 11
200.000000
 21
3500.000000
 31
0.0
  0
LINE
  5
43
330
17
100
AcDbEntity
  8
Portant
100
AcDbLine
 10
-200.000000
 20
0.000000
 30
0.0
 11
200.000000
 21
0.000000
 31
0.0
  0
LINE
  5
44
330
17
100
AcDbEntity
  8
Portant
100
AcDbLine
 10
-200.000000
 20
3500.000000
 30
0.0
 11
200.000000
 21
3500.000000
 31
0.0
  0
LINE
  5
45
330
17
100
AcDbEntity
  8
Portant
100
AcDbLine
 10
0.000000
 20
3700.000000
 30
0.0
 11
4200.000000
 21
3700.000000
 31
0.0
  0
LINE
  5
46
330
17
100
AcDbEntity
  8
Portant
100
AcDbLine
 10
0.000000
 20
3300.000000
 30
0.0
 11
4200.000000
 21
3300.000000
 31
0.0
  0
LINE
  5
47
330
17
100
AcDbEntity
  8
Portant
100
AcDbLine
 10
0.000000
 20
3700.000000
 30
0.0
 11
0.000000
 21
3300.000000
 31
0.0
  0
LINE
  5
48
330
17
100
AcDbEntity
  8
Portant
100
AcDbLine
 10
4200.000000
 20
3700.000000
 30
0.0
 11
4200.000000
 21
3300.000000
 31
0.0
  0
LINE
  5
49
330
17
100
AcDbEntity
  8
Portant
100
AcDbLine
 10
4400.000000
 20
3500.000000
 30
0.0
 11
4400.000000
 21
0.000000
 31
0.0
  0
LINE
  5
4A
330
17
100
AcDbEntity
  8
Portant
100
AcDbLine
 10
4000.000000
 20
3500.000000
 30
0.0
 11
4000.000000
 21
0.000000
 31
0.0
  0
LINE
  5
4B
330
17
100
AcDbEntity
  8
Portant
100
AcDbLine
 10
4400.000000
 20
3500.000000
 30
0.0
 11
4000.000000
 21
3500.000000
 31
0.0
  0
LINE
  5
4C
330
17
100
AcDbEntity
  8
Portant
100
AcDbLine
 10
4400.000000
 20
0.000000
 30
0.0
 11
4000.000000
 21
0.000000
 31
0.0
  0
LINE
  5
4D
330
17
100
AcDbEntity
  8
Portant
100
AcDbLine
 10
4200.000000
 20
-200.000000
 30
0.0
 11
0.000000
 21
-200.000000
 31
0.0
  0
LINE
  5
4E
330
17
100
AcDbEntity
  8
Portant
100
AcDbLine
 10
4200.000000
 20
200.000000
 30
0.0
 11
0.000000
 21
200.000000
 31
0.0
  0
LINE
  5
4F
330
17
100
AcDbEntity
  8
Portant
100
AcDbLine
 10
4200.000000
 20
-200.000000
 30
0.0
 11
4200.000000
 21
200.000000
 31
0.0
  0
LINE
  5
50
330
17
100
AcDbEntity
  8
Portant
100
AcDbLine
 10
0.000000
 20
-200.000000
 30
0.0
 11
0.000000
 21
200.000000
 31
0.0
  0
LWPOLYLINE
  5
51
330
17
100
AcDbEntity
  8
Incaperi
100
AcDbPolyline
 90
6
 70
0
 10
200.000000
 20
0.000000
 10
141.421356
 20
3358.578644
 10
4058.578644
 20
3358.578644
 10
4058.578644
 20
141.421356
 10
0.000000
 20
200.000000
 10
200.000000
 20
0.000000
  0
TEXT
  5
52
330
17
100
AcDbEntity
  8
Incaperi
100
AcDbText
 10
1680.000000
 20
1775.000000
 30
0.0
 40
250.000000
  1
1
100
AcDbText
  0
TEXT
  5
53
330
17
100
AcDbEntity
  8
Incaperi
100
AcDbText
 10
1680.000000
 20
1025.000000
 30
0.0
 40
200.000000
  1
14,7
100
AcDbText
  0
TEXT
  5
54
330
17
100
AcDbEntity
  8
Dimensiuni
100
AcDbText
 10
-800.000000
 20
1750.000000
 30
0.0
 40
180.000000
  1
3,50
100
AcDbText
  0
TEXT
  5
55
330
17
100
AcDbEntity
  8
Dimensiuni
100
AcDbText
 10
2100.000000
 20
4300.000000
 30
0.0
 40
180.000000
  1
4,20
100
AcDbText
  0
TEXT
  5
56
330
17
100
AcDbEntity
  8
Dimensiuni
100
AcDbText
 10
5000.000000
 20
1750.000000
 30
0.0
 40
180.000000
  1
3,50
100
AcDbText
  0
TEXT
  5
57
330
17
100
AcDbEntity
  8
Dimensiuni
100
AcDbText
 10
2100.000000
 20
-800.000000
 30
0.0
 40
180.000000
  1
4,20
100
AcDbText
  0
LINE
  5
58
330
17
100
AcDbEntity
  8
Gol
100
AcDbLine
 10
60.000000
 20
500.000000
 30
0.0
 11
60.000000
 21
1700.000000
 31
0.0
  0
LINE
  5
59
330
17
100
AcDbEntity
  8
Gol
100
AcDbLine
 10
-60.000000
 20
500.000000
 30
0.0
 11
-60.000000
 21
1700.000000
 31
0.0
  0
ARC
  5
5A
330
17
100
AcDbEntity
  8
Gol
100
AcDbCircle
 10
4000.000000
 20
0.000000
 30
0.0
 40
900.000000
100
AcDbArc
 50
180.000000
 51
270.000000
  0
LINE
  5
5B
330
17
100
AcDbEntity
  8
Gol
100
AcDbLine
 10
4000.000000
 20
0.000000
 30
0.0
 11
3100.000000
 21
0.000000
 31
0.0
  0
TEXT
  5
5C
330
17
100
AcDbEntity
  8
Nivel
100
AcDbText
 10
0.000000
 20
4700.000000
 30
0.0
 40
300.000000
  1
Nivelul:1 Parter
100
AcDbText
  0
TEXT
  5
5D
330
17
100
AcDbEntity
  8
Text
100
AcDbText
 10
1000.000000
 20
3000.000000
 30
0.0
 40
250.000000
  1
SCHITA CLADIRII LIT. "B"
100
AcDbText
  0
TEXT
  5
5E
330
17
100
AcDbEntity
  8
Text
100
AcDbText
 10
1000.000000
 20
2500.000000
 30
0.0
 40
250.000000
  1
h=2,70
100
AcDbText
  0
TEXT
  5
5F
330
17
100
AcDbEntity
  8
Text
100
AcDbText
 10
1000.000000
 20
2000.000000
 30
0.0
 40
250.000000
  1
H=3,00
100
AcDbText
  0
TEXT
  5
60
330
17
100
AcDbEntity
  8
Text
100
AcDbText
 10
1000.000000
 20
1500.000000
 30
0.0
 40
250.000000
  1
In conformitate cu Autorizatia de construire Nr.1922 din 29.01.2025
100
AcDbText
  0
TEXT
  5
61
330
17
100
AcDbEntity
  8
Text
100
AcDbText
 10
1000.000000
 20
3500.000000
 30
0.0
 40
375.000000
  1
B-04
100
AcDbText
  0
ENDSEC
  0
EOF